<svg width="37" height="37" viewBox="0 0 37 37" fill="none" xmlns="http://www.w3.org/2000/svg">
<path d="M23.6058 17.0015C23.3482 17.0004 23.0932 17.0532 22.8572 17.1564C22.6211 17.2596 22.4092 17.411 22.2351 17.6008C22.0609 17.7906 21.9283 18.0147 21.8458 18.2588C21.7633 18.5028 21.7326 18.7614 21.7558 19.018H25.5668C25.5914 18.7518 25.558 18.4834 25.469 18.2314C25.3799 17.9793 25.2373 17.7495 25.0509 17.5579C24.8646 17.3662 24.6389 17.2173 24.3894 17.1212C24.1399 17.0251 23.8726 16.9843 23.6058 17.0015Z" fill="#FF86C8"/>
<path d="M13.8563 19.055H11.5808V22.644H13.4308C15.2808 22.644 16.0948 22.0335 16.0948 20.794C16.0948 19.5545 15.2438 19.055 13.8563 19.055Z" fill="#FF86C8"/>
<path d="M15.4658 15.762C15.4658 14.7815 14.8183 14.1895 13.7083 14.1895H11.5808V17.4085H13.1533C14.7998 17.4085 15.4658 16.8165 15.4658 15.762Z" fill="#FF86C8"/>
<path d="M18.5 0C14.8411 0 11.2643 1.08501 8.22196 3.11781C5.17965 5.15062 2.80846 8.03992 1.40824 11.4204C0.00801575 14.8008 -0.358346 18.5205 0.355481 22.1092C1.06931 25.6978 2.83126 28.9942 5.41853 31.5815C8.0058 34.1687 11.3022 35.9307 14.8908 36.6445C18.4795 37.3583 22.1992 36.992 25.5796 35.5918C28.9601 34.1915 31.8494 31.8203 33.8822 28.778C35.915 25.7357 37 22.1589 37 18.5C37 16.0705 36.5215 13.6649 35.5918 11.4204C34.6621 9.17583 33.2994 7.13641 31.5815 5.41852C29.8636 3.70064 27.8242 2.33794 25.5796 1.40823C23.3351 0.478517 20.9295 0 18.5 0ZM14.245 24.42H9.25001V12.395H14.245C16.4095 12.395 17.834 13.5235 17.834 15.355C17.8595 15.9703 17.665 16.5746 17.2853 17.0594C16.9055 17.5442 16.3655 17.8779 15.762 18.0005C16.1445 18.0094 16.5211 18.0962 16.8688 18.2556C17.2166 18.4151 17.5282 18.6438 17.7845 18.9278C18.0408 19.2118 18.2364 19.5451 18.3594 19.9074C18.4825 20.2696 18.5303 20.6531 18.5 21.0345C18.5 23.1805 16.65 24.42 14.245 24.42ZM20.8125 13.32H26.3625V14.245H20.8125V13.32ZM27.75 20.4425H21.645V20.7015C21.6132 20.9826 21.642 21.2673 21.7295 21.5363C21.817 21.8054 21.9611 22.0525 22.1522 22.2612C22.3433 22.4698 22.5769 22.635 22.8373 22.7457C23.0976 22.8565 23.3787 22.9101 23.6615 22.903C24.0586 22.9647 24.4646 22.8807 24.8046 22.6665C25.1446 22.4523 25.3957 22.1223 25.5115 21.7375H27.75C27.5507 22.6255 27.031 23.409 26.2904 23.938C25.5498 24.467 24.6402 24.7045 23.7355 24.605C23.1573 24.6634 22.5733 24.5944 22.0247 24.4028C21.476 24.2112 20.976 23.9017 20.5598 23.4961C20.1436 23.0905 19.8213 22.5986 19.6157 22.0551C19.4101 21.5115 19.326 20.9295 19.3695 20.35V19.536C19.3302 18.9745 19.4128 18.4111 19.6117 17.8845C19.8106 17.3579 20.121 16.8805 20.5216 16.4851C20.9223 16.0897 21.4037 15.7857 21.9329 15.5938C22.4621 15.4019 23.0265 15.3268 23.5875 15.3735C24.1466 15.3377 24.7069 15.422 25.2307 15.6209C25.7544 15.8198 26.2295 16.1286 26.6239 16.5265C27.0183 16.9244 27.3229 17.4022 27.5172 17.9277C27.7114 18.4532 27.7908 19.0142 27.75 19.573V20.4425Z" fill="#FF86C8"/>
</svg>
