<svg width="37" height="37" viewBox="0 0 37 37" fill="none" xmlns="http://www.w3.org/2000/svg">
<path fill-rule="evenodd" clip-rule="evenodd" d="M18.5 0C8.27875 0 0 8.48815 0 18.9679C0 27.3612 5.29562 34.4505 12.6494 36.9638C13.5744 37.1297 13.9212 36.5607 13.9212 36.0628C13.9212 35.6123 13.8981 34.1186 13.8981 32.53C9.25 33.4073 8.0475 31.3682 7.6775 30.3013C7.46938 29.756 6.5675 28.0725 5.78125 27.6221C5.13375 27.2664 4.20875 26.3891 5.75813 26.3654C7.215 26.3417 8.25563 27.7406 8.6025 28.3096C10.2675 31.1785 12.9269 30.3724 13.9906 29.8745C14.1525 28.6416 14.6381 27.8117 15.17 27.3375C11.0538 26.8633 6.7525 25.2274 6.7525 17.9721C6.7525 15.9094 7.46938 14.2022 8.64875 12.8745C8.46375 12.4003 7.81625 10.4561 8.83375 7.84798C8.83375 7.84798 10.3831 7.35007 13.9212 9.7922C15.4012 9.36542 16.9737 9.15203 18.5462 9.15203C20.1187 9.15203 21.6912 9.36542 23.1712 9.7922C26.7094 7.32636 28.2587 7.84798 28.2587 7.84798C29.2762 10.4561 28.6287 12.4003 28.4438 12.8745C29.6231 14.2022 30.34 15.8856 30.34 17.9721C30.34 25.2511 26.0156 26.8633 21.8994 27.3375C22.57 27.9303 23.1481 29.0684 23.1481 30.8466C23.1481 33.3836 23.125 35.4226 23.125 36.0628C23.125 36.5607 23.4719 37.1534 24.3969 36.9638C31.7044 34.4505 37 27.3375 37 18.9679C37 8.48815 28.7213 0 18.5 0Z" fill="#FF86C8"/>
</svg>
