<svg width="38" height="39" viewBox="0 0 38 39" fill="none" xmlns="http://www.w3.org/2000/svg">
<g clip-path="url(#clip0_23_412)">
<path d="M18.7076 0.552521C29.0402 0.552521 37.4154 8.96105 37.4154 19.3321C37.4154 29.7032 29.0402 38.1116 18.7076 38.1116C8.37508 38.1116 0 29.7031 0 19.3321C0 8.96118 8.37521 0.552521 18.7076 0.552521Z" fill="#FF86C8"/>
<path d="M10.5417 26.3556H14.0447V14.6348H10.5417V26.3556ZM24.189 14.2288C22.4889 14.2288 20.9677 14.852 19.8886 16.2277V14.5962H16.3728V26.3557H19.8886V19.9965C19.8886 18.6525 21.1152 17.3415 22.6515 17.3415C24.1879 17.3415 24.5667 18.6525 24.5667 19.9636V26.3546H28.0698V19.7019C28.0697 15.0809 25.8903 14.2288 24.189 14.2288ZM12.2768 13.4635C13.245 13.4635 14.0308 12.6747 14.0308 11.7028C14.0308 10.731 13.245 9.94232 12.2768 9.94232C11.3087 9.94232 10.5229 10.7311 10.5229 11.703C10.5229 12.6748 11.3087 13.4635 12.2768 13.4635Z" fill="#090E16"/>
</g>
<defs>
<clipPath id="clip0_23_412">
<rect width="37.4154" height="37.5591" fill="white" transform="translate(0 0.552521)"/>
</clipPath>
</defs>
</svg>
