<svg width="65" height="68" viewBox="0 0 65 68" fill="none" xmlns="http://www.w3.org/2000/svg">
<g clip-path="url(#clip0_9_184)">
<path fill-rule="evenodd" clip-rule="evenodd" d="M17.0558 8.14616C17.0558 8.14616 16.0601 0.953126 32.0051 0.953125C48.6683 0.953125 47.381 9.62544 47.381 9.62544V23.956C47.381 32.623 38.902 32.4804 38.902 32.4804H23.8105C14.7607 32.4804 15.0472 41.7445 15.0472 41.7445V49.5107H9.73224C9.73224 49.5107 0.826659 50.1042 0.82666 33.368C0.82666 16.6318 11.0299 17.8355 11.0299 17.8355H32.2895V15.5981H17.0736L17.0558 8.14616ZM26.3524 8.81184C26.3524 7.23703 25.1289 5.96421 23.615 5.96421C22.1011 5.96421 20.8776 7.23703 20.8776 8.81184C20.8776 10.3866 22.1011 11.6595 23.615 11.6595C25.1289 11.6595 26.3524 10.3866 26.3524 8.81184Z" fill="#30202A" fill-opacity="0.8"/>
<path fill-rule="evenodd" clip-rule="evenodd" d="M47.4072 58.7576C47.4072 58.7576 48.4029 65.9507 32.4579 65.9507C15.7947 65.9507 17.082 57.2784 17.082 57.2784V42.9478C17.082 34.2808 25.561 34.4234 25.561 34.4234H40.6525C49.7024 34.4234 49.4159 25.1593 49.4159 25.1593V17.3931H54.7308C54.7308 17.3931 63.6364 16.7996 63.6364 33.5358C63.6364 50.272 53.4332 49.0683 53.4332 49.0683H32.1735V51.3057H47.3895L47.4072 58.7576ZM38.1106 58.092C38.1106 59.6668 39.3342 60.9396 40.848 60.9396C42.3619 60.9396 43.5855 59.6668 43.5855 58.092C43.5855 56.5172 42.3619 55.2443 40.848 55.2443C39.3342 55.2443 38.1106 56.5172 38.1106 58.092Z" fill="#30202A" fill-opacity="0.8"/>
</g>
<defs>
<clipPath id="clip0_9_184">
<rect width="64.4723" height="67.0673" fill="white" transform="translate(0.0356445 0.0175781)"/>
</clipPath>
</defs>
</svg>
